<?xml version="1.0" encoding="utf-8"?>
<!-- Generator: Adobe Illustrator 24.1.1, SVG Export Plug-In . SVG Version: 6.00 Build 0)  -->
<svg version="1.1" id="Capa_1" xmlns="http://www.w3.org/2000/svg" xmlns:xlink="http://www.w3.org/1999/xlink" x="0px" y="0px"
	 viewBox="0 0 1280 1280" style="enable-background:new 0 0 1280 1280;" xml:space="preserve">
<style type="text/css">
	.st0{fill:#213D8A;}
</style>
<g>
	<g>
		<path class="st0" d="M247.6,842.9c0-6.8,1.4-14.2,3.8-21c2.5-6.8,6.3-13.1,11.7-18.6c4.9-5.5,11.2-9.8,18.6-13.1
			c7.4-3.6,15.6-4.9,24.9-4.9c10.7,0,20.5,2.5,28.7,7.4c8.2,4.9,14.2,10.7,18,18.6l-21,14.8c-1.4-3-3-5.7-4.9-7.9
			c-1.9-1.9-4.4-3.8-6.8-4.9c-2.5-1.4-4.9-1.9-7.4-2.5c-2.5-0.5-4.9-1.1-7.4-1.1c-5.5,0-9.8,1.1-13.7,3c-3.8,1.9-6.8,4.9-9.8,8.2
			c-2.5,3.6-4.4,6.8-5.5,11.2c-1.1,4.4-1.9,8.2-1.9,12.6c0,4.4,0.5,9.3,1.9,13.1c1.4,4.4,3.6,8.2,6.3,11.2c3,3.6,5.7,5.7,9.8,7.9
			c4.1,2.2,7.9,3,12.6,3c2.5,0,4.9-0.5,7.4-1.1s4.9-1.4,7.4-3c2.5-1.6,4.4-3,6.3-4.9c1.9-1.9,3.6-4.4,4.9-7.4l21.9,13.1
			c-1.9,4.4-4.4,8.2-7.9,11.7c-3.6,3.6-7.4,6.3-12.3,8.7c-4.4,2.5-9.3,3.8-14.2,5.5c-4.9,1.1-10.4,1.9-14.8,1.9
			c-8.2,0-16.1-1.9-23.5-5.5s-13.1-7.9-18-13.7c-4.9-5.7-9.3-12.3-11.7-19.4C248.7,858.2,247.6,850.9,247.6,842.9z"/>
		<path class="st0" d="M419.5,903.6c-8.7,0-16.7-1.9-24-4.9c-7.4-3.6-13.1-7.9-18-13.7c-4.9-5.5-8.7-11.7-11.7-19.1
			c-3-7.4-4.4-14.8-4.4-21.9c0-7.9,1.4-15,4.4-22.4c3-7.4,6.8-13.7,12.3-19.1s11.2-9.8,18.6-13.1c7.4-3.6,15-4.9,23.5-4.9
			c8.7,0,16.7,1.9,24,4.9c7.4,3.6,13.1,7.9,18,13.7s8.7,12.3,11.7,19.1c3,7.4,3.8,14.2,3.8,21.9c0,7.6-1.4,15-4.4,22.4
			c-3,7.4-6.8,13.7-12.3,19.1s-11.2,9.8-18.6,13.1C435.6,902.2,427.9,903.6,419.5,903.6z M388.9,844.6c0,4.4,0.5,8.7,1.9,13.1
			c1.4,4.4,3.6,7.9,5.7,11.2c2.5,3.6,5.7,5.7,9.8,7.9c3.8,1.9,8.2,3,13.1,3c5.5,0,9.8-1.1,13.7-3s6.8-4.9,9.8-8.2
			c2.5-3.6,4.4-7.4,5.7-11.2c1.4-4.4,1.9-8.7,1.9-13.1c0-4.4-0.5-8.7-1.9-13.1c-1.4-4.4-3.6-7.9-5.7-11.2c-2.5-3.6-5.7-5.7-9.8-7.9
			c-3.8-1.9-8.2-3-13.1-3c-5.5,0-9.8,1.1-13.7,3c-3.8,1.9-6.8,4.9-9.8,7.9c-2.5,3.6-4.4,6.8-5.7,11.2
			C389.7,835.8,388.9,840.2,388.9,844.6z"/>
		<path class="st0" d="M522.2,835.8v66.9h-26.8V785.6h21l54.6,68.8v-68.8h26.8v117.2H576L522.2,835.8z"/>
		<path class="st0" d="M615.3,842.9c0-6.8,1.4-14.2,3.8-21c2.5-6.8,6.3-13.1,11.7-18.6c4.9-5.5,11.2-9.8,18.6-13.1
			c7.4-3.6,15.6-4.9,24.9-4.9c10.7,0,20.5,2.5,28.7,7.4c8.2,4.9,14.2,10.7,18,18.6L700,826c-1.4-3-3-5.7-4.9-7.9
			c-1.9-1.9-4.4-3.8-6.8-4.9c-2.5-1.4-4.9-1.9-7.4-2.5c-2.5-0.5-4.9-1.1-7.4-1.1c-5.5,0-9.8,1.1-13.7,3c-3.8,1.9-6.8,4.9-9.8,8.2
			c-2.5,3.6-4.4,6.8-5.5,11.2c-1.1,4.4-1.9,8.2-1.9,12.6c0,4.4,0.5,9.3,1.9,13.1c1.4,4.4,3.6,8.2,6.3,11.2c2.5,3.6,5.7,5.7,9.8,7.9
			c4.1,2.2,7.9,3,12.6,3c2.5,0,4.9-0.5,7.4-1.1c2.5-0.5,4.9-1.4,7.4-3c2.5-1.4,4.4-3,6.3-4.9c1.9-1.9,3.6-4.4,4.9-7.4l21.9,13.1
			c-1.9,4.4-4.4,8.2-7.9,11.7c-3.6,3.6-7.4,6.3-12.3,8.7c-4.4,2.5-9.3,3.8-14.2,5.5c-4.9,1.1-10.4,1.9-14.8,1.9
			c-8.2,0-16.1-1.9-23.5-5.5c-7.4-3.6-13.1-7.9-18-13.7c-4.9-5.7-9.3-12.3-11.7-19.4C616.7,858.2,615.3,850.9,615.3,842.9z"/>
		<path class="st0" d="M819.4,879.3v24h-82.5V786.1h81.1v24h-53.8v22.9h46.4V855h-46.4v24.9h55.2V879.3z"/>
		<path class="st0" d="M833.1,875.2c1.1,1.1,3.6,1.9,6.8,3.6c3.6,1.4,7.9,1.9,12.6,1.9c3.8,0,7.4-0.5,9.8-1.9s4.4-3.6,5.5-6.3
			c1.4-3,1.9-6.3,2.5-10.7c0.5-4.4,0.5-9.8,0.5-16.1v-59.6h26.8v59c0,8.7-0.5,17.2-1.4,24.3c-1.1,7.4-3,13.7-6.3,18.6
			c-3,5.5-7.9,9.3-13.7,12.3s-14.2,4.4-24.3,4.4c-9.8,0-18.6-2.5-25.4-7.4L833.1,875.2z"/>
		<path class="st0" d="M971.9,903.6c-8.7,0-16.7-1.9-24-4.9c-7.4-3.6-13.1-7.9-18.6-13.7c-4.9-5.5-8.7-11.7-11.7-19.1
			c-3-7.4-4.4-14.8-4.4-21.9c0-7.9,1.4-15,4.4-22.4c3-7.4,6.8-13.7,12.3-19.1c5.5-5.5,11.2-9.8,18.6-13.1c7.4-3.6,15-4.9,23.5-4.9
			c8.7,0,16.7,1.9,24,4.9c7.4,3.6,13.1,7.9,18.6,13.7c4.9,5.7,8.7,12.3,11.7,19.1c3,7.4,3.8,14.2,3.8,21.9c0,7.6-1.4,15-4.4,22.4
			c-3,7.4-6.8,13.7-12.3,19.1c-5.5,5.5-11.2,9.8-18.6,13.1C988.3,902.2,980.6,903.6,971.9,903.6z M941.6,844.6
			c0,4.4,0.5,8.7,1.9,13.1c1.4,4.4,3.6,7.9,5.7,11.2c2.5,3.6,5.7,5.7,9.8,7.9c3.8,1.9,8.2,3,13.1,3c5.5,0,9.8-1.1,13.7-3
			s6.8-4.9,9.8-8.2c2.5-3.6,4.4-7.4,5.7-11.2c1.4-4.4,1.9-8.7,1.9-13.1c0-4.4-0.5-8.7-1.9-13.1s-3.6-7.9-5.7-11.2
			c-2.5-3.6-5.7-5.7-9.8-7.9c-3.8-1.9-8.2-3-13.1-3c-5.5,0-9.8,1.1-13.1,3c-3.8,1.9-6.8,4.9-9.8,7.9c-2.5,3.6-4.4,6.8-5.7,11.2
			C942.1,835.8,941.6,840.2,941.6,844.6z"/>
		<path class="st0" d="M446.5,974.9c-2.5-2.5-5.5-4.9-9.3-6.3c-3.8-1.4-8.2-2.5-13.1-2.5c-7.4,0-12.6,1.4-15.6,3.8
			c-3.6,3-4.9,6.3-4.9,11.2c0,2.5,0.5,4.4,1.4,5.7c1.1,1.4,2.5,3,3.8,3.8c1.9,1.1,4.4,1.9,7.4,3c3,1.1,6.3,1.4,10.4,2.5
			c4.4,1.1,8.2,1.9,11.7,3c3.6,1.1,6.3,2.5,8.7,4.4s4.4,3.8,5.7,6.3c1.4,2.5,1.9,5.5,1.9,9.3c0,3.8-0.5,6.8-1.9,9.8
			c-1.4,3-3.6,4.9-6.3,6.8c-2.5,1.9-5.7,3.6-9.3,3.8c-3.6,1.1-7.9,1.4-11.7,1.4c-12.6,0-24-3.8-32.8-11.7l3.8-6.8
			c1.4,1.4,3.6,3,5.5,4.4c1.9,1.4,4.4,2.5,6.8,3.6c2.5,1.1,5.5,1.9,7.9,2.5c3,0.5,5.7,1.1,8.7,1.1c6.3,0,11.7-1.1,15-3.6
			c3.6-2.5,5.5-5.7,5.5-10.7c0-2.5-0.5-4.9-1.4-6.3c-1.1-1.9-2.5-3.6-4.9-4.4c-1.9-1.4-4.9-2.5-7.9-3.6c-3-1.1-6.8-1.9-10.7-3
			c-4.4-1.1-8.2-1.9-11.2-3c-3.6-1.1-5.7-2.5-8.2-3.8c-2.5-1.4-3.8-3.6-4.9-5.7c-1.1-2.5-1.4-4.9-1.4-8.2c0-3.8,0.5-7.4,1.9-10.4
			c1.4-3,3.6-5.5,5.7-7.4c2.5-1.9,5.7-3.6,9.3-4.4c3.6-1.1,7.4-1.4,11.7-1.4c5.5,0,10.4,1.1,14.8,2.5c4.4,1.4,8.2,3.8,11.7,6.8
			L446.5,974.9z"/>
		<path class="st0" d="M492.7,959.3h6.8l34.2,82h-8.7l-10.7-26h-37.2l-10.7,26h-8.7L492.7,959.3z M512.9,1009.6l-16.7-40.4
			l-16.7,40.4H512.9z"/>
		<path class="st0" d="M553.9,974.4v66.9h-8.2v-82h6.3l54.1,68.3v-68.3h8.2v82h-6.8L553.9,974.4z"/>
		<path class="st0" d="M692.9,966.7h-29.2v74.6h-8.2v-74.6h-29.2v-7.4h66.4v7.4H692.9z"/>
		<path class="st0" d="M722.7,959.3h6.8l34.2,82H755l-10.7-26h-37.2l-10.7,26h-8.7L722.7,959.3z M742.9,1009.6l-16.7-40.4
			l-16.7,40.4H742.9z"/>
		<path class="st0" d="M801.4,1041.3v-82h53.8v7.4h-45.9V997h38.5v6.8h-38.5v38h-7.9L801.4,1041.3L801.4,1041.3z"/>
		<path class="st0" d="M924.3,1034.5v7.4h-55.2v-82h54.1v7.4h-45.9V997h40.2v6.8h-40.2v31.1h47V1034.5z"/>
	</g>
	<path class="st0" d="M1166.7,618.4c0-4.9-0.5-9.8-1.1-14.2c-17.2-264.7-237.4-474-506.2-474S170.6,339.7,153.1,604.4
		c-0.5,4.9-1.1,9.3-1.1,14.2c-0.5,6.3-0.5,12.6-0.5,19.1c0,5.7,0.5,12.3,0.5,18h68.8h61.5h61.5c-0.5-5.7-0.5-12.3-0.5-18
		c0-6.3,0.5-12.6,0.5-19.1c0.5-4.9,0.5-9.8,1.1-14.2c16.7-158.2,150.8-281.7,313.4-281.7s297,123.2,313.6,281.7H906
		c-16.7-122.1-121-216.9-247.5-216.9c-127,0-231.4,94.3-247.5,216.9c-0.5,4.9-1.1,9.3-1.4,14.2c-0.5,6.3-1.1,12.6-1.1,19.1
		c0,6.3,0.5,12.3,1.1,18h60.1c-0.5-5.7-1.1-11.7-1.1-18c0-6.3,0.5-12.6,1.1-19.1c0.5-4.9,1.4-9.8,1.9-14.2
		c15.6-88.8,93.7-156.8,186.9-156.8c93.7,0,171.3,67.8,186.9,156.8c1.1,4.9,1.4,9.3,1.9,14.2c0.5,6.3,1.1,12.6,1.1,19.1
		c0,6.3-0.5,12.3-1.1,18h60.1h65.3h61.5c0.5-5.7,0.5-12.3,0.5-18c0-6.3,0-12.6-0.5-19.1c0-4.9-0.5-9.8-1.1-14.2
		c-17.2-192.3-178.7-343.7-375.4-343.7S299.5,411.6,282.3,604.4h-61.5c17.2-226.5,206-405.2,437.1-405.2s419.9,178.7,437.1,405.2
		c0.5,4.9,1.1,9.3,1.1,14.2c0.5,6.3,0.5,12.6,0.5,19.1c0,5.7-0.5,12.3-0.5,18h68.8c0-5.7,0.5-12.3,0.5-18
		C1167.2,631.2,1167.2,624.9,1166.7,618.4z"/>
</g>
</svg>
