<?xml version="1.0" encoding="utf-8"?>
<!-- Generator: Adobe Illustrator 21.1.0, SVG Export Plug-In . SVG Version: 6.00 Build 0)  -->
<svg version="1.1" id="Capa_1" xmlns="http://www.w3.org/2000/svg" xmlns:xlink="http://www.w3.org/1999/xlink" x="0px" y="0px"
	 viewBox="0 0 595.3 361.9" style="enable-background:new 0 0 595.3 361.9;" xml:space="preserve">
<style type="text/css">
	.st0{fill:#213D8A;}
</style>
<g>
	<g>
		<path class="st0" d="M213.6,232.6c0-1.4,0.3-2.9,0.8-4.3c0.5-1.4,1.3-2.7,2.4-3.8c1-1.1,2.3-2,3.8-2.7c1.5-0.7,3.2-1,5.1-1
			c2.2,0,4.2,0.5,5.9,1.5c1.7,1,2.9,2.2,3.7,3.8l-4.3,3c-0.3-0.6-0.6-1.2-1-1.6c-0.4-0.4-0.9-0.8-1.4-1c-0.5-0.3-1-0.4-1.5-0.5
			c-0.5-0.1-1-0.2-1.5-0.2c-1.1,0-2,0.2-2.8,0.6c-0.8,0.4-1.4,1-2,1.7c-0.5,0.7-0.9,1.4-1.1,2.3c-0.2,0.9-0.4,1.7-0.4,2.6
			c0,0.9,0.1,1.9,0.4,2.7c0.3,0.9,0.7,1.7,1.3,2.3c0.6,0.7,1.2,1.2,2,1.6c0.8,0.4,1.6,0.6,2.6,0.6c0.5,0,1-0.1,1.5-0.2
			c0.5-0.1,1-0.3,1.5-0.6c0.5-0.3,0.9-0.6,1.3-1c0.4-0.4,0.7-0.9,1-1.5l4.5,2.7c-0.4,0.9-0.9,1.7-1.6,2.4c-0.7,0.7-1.5,1.3-2.5,1.8
			c-0.9,0.5-1.9,0.8-2.9,1.1c-1,0.2-2.1,0.4-3,0.4c-1.7,0-3.3-0.4-4.8-1.1c-1.5-0.7-2.7-1.6-3.7-2.8c-1-1.2-1.9-2.5-2.4-4
			C213.8,235.7,213.6,234.2,213.6,232.6z"/>
		<path class="st0" d="M248.8,245c-1.8,0-3.4-0.4-4.9-1c-1.5-0.7-2.7-1.6-3.7-2.8c-1-1.1-1.8-2.4-2.4-3.9c-0.6-1.5-0.9-3-0.9-4.5
			c0-1.6,0.3-3.1,0.9-4.6c0.6-1.5,1.4-2.8,2.5-3.9c1.1-1.1,2.3-2,3.8-2.7c1.5-0.7,3.1-1,4.8-1c1.8,0,3.4,0.4,4.9,1
			c1.5,0.7,2.7,1.6,3.7,2.8c1,1.2,1.8,2.5,2.4,3.9c0.6,1.5,0.8,2.9,0.8,4.5c0,1.6-0.3,3.1-0.9,4.6c-0.6,1.5-1.4,2.8-2.5,3.9
			c-1.1,1.1-2.3,2-3.8,2.7C252.1,244.7,250.5,245,248.8,245z M242.5,232.9c0,0.9,0.1,1.8,0.4,2.7c0.3,0.9,0.7,1.6,1.2,2.3
			c0.5,0.7,1.2,1.2,2,1.6c0.8,0.4,1.7,0.6,2.7,0.6c1.1,0,2-0.2,2.8-0.6c0.8-0.4,1.4-1,2-1.7c0.5-0.7,0.9-1.5,1.2-2.3
			c0.3-0.9,0.4-1.8,0.4-2.7c0-0.9-0.1-1.8-0.4-2.7c-0.3-0.9-0.7-1.6-1.2-2.3c-0.5-0.7-1.2-1.2-2-1.6c-0.8-0.4-1.7-0.6-2.7-0.6
			c-1.1,0-2,0.2-2.8,0.6c-0.8,0.4-1.4,1-2,1.6c-0.5,0.7-0.9,1.4-1.2,2.3C242.7,231.1,242.5,232,242.5,232.9z"/>
		<path class="st0" d="M269.8,231.1v13.7h-5.5v-24h4.3l11.2,14.1v-14.1h5.5v24h-4.5L269.8,231.1z"/>
		<path class="st0" d="M288.9,232.6c0-1.4,0.3-2.9,0.8-4.3c0.5-1.4,1.3-2.7,2.4-3.8c1-1.1,2.3-2,3.8-2.7c1.5-0.7,3.2-1,5.1-1
			c2.2,0,4.2,0.5,5.9,1.5c1.7,1,2.9,2.2,3.7,3.8l-4.3,3c-0.3-0.6-0.6-1.2-1-1.6c-0.4-0.4-0.9-0.8-1.4-1c-0.5-0.3-1-0.4-1.5-0.5
			c-0.5-0.1-1-0.2-1.5-0.2c-1.1,0-2,0.2-2.8,0.6c-0.8,0.4-1.4,1-2,1.7c-0.5,0.7-0.9,1.4-1.1,2.3c-0.2,0.9-0.4,1.7-0.4,2.6
			c0,0.9,0.1,1.9,0.4,2.7c0.3,0.9,0.7,1.7,1.3,2.3c0.5,0.7,1.2,1.2,2,1.6c0.8,0.4,1.6,0.6,2.6,0.6c0.5,0,1-0.1,1.5-0.2
			c0.5-0.1,1-0.3,1.5-0.6c0.5-0.3,0.9-0.6,1.3-1c0.4-0.4,0.7-0.9,1-1.5l4.5,2.7c-0.4,0.9-0.9,1.7-1.6,2.4c-0.7,0.7-1.5,1.3-2.5,1.8
			c-0.9,0.5-1.9,0.8-2.9,1.1c-1,0.2-2.1,0.4-3,0.4c-1.7,0-3.3-0.4-4.8-1.1c-1.5-0.7-2.7-1.6-3.7-2.8c-1-1.2-1.9-2.5-2.4-4
			C289.2,235.7,288.9,234.2,288.9,232.6z"/>
		<path class="st0" d="M330.7,240v4.9h-16.9v-24h16.6v4.9h-11v4.7h9.5v4.5h-9.5v5.1H330.7z"/>
		<path class="st0" d="M333.5,239.2c0.2,0.2,0.7,0.4,1.4,0.7c0.7,0.3,1.6,0.4,2.6,0.4c0.8,0,1.5-0.1,2-0.4c0.5-0.3,0.9-0.7,1.1-1.3
			c0.3-0.6,0.4-1.3,0.5-2.2c0.1-0.9,0.1-2,0.1-3.3v-12.2h5.5V233c0,1.8-0.1,3.5-0.3,5c-0.2,1.5-0.6,2.8-1.3,3.8
			c-0.6,1.1-1.6,1.9-2.8,2.5c-1.2,0.6-2.9,0.9-5,0.9c-2,0-3.8-0.5-5.2-1.5L333.5,239.2z"/>
		<path class="st0" d="M361.9,245c-1.8,0-3.4-0.4-4.9-1c-1.5-0.7-2.7-1.6-3.8-2.8c-1-1.1-1.8-2.4-2.4-3.9c-0.6-1.5-0.9-3-0.9-4.5
			c0-1.6,0.3-3.1,0.9-4.6c0.6-1.5,1.4-2.8,2.5-3.9c1.1-1.1,2.3-2,3.8-2.7c1.5-0.7,3.1-1,4.8-1c1.8,0,3.4,0.4,4.9,1
			c1.5,0.7,2.7,1.6,3.8,2.8c1,1.2,1.8,2.5,2.4,3.9c0.6,1.5,0.8,2.9,0.8,4.5c0,1.6-0.3,3.1-0.9,4.6c-0.6,1.5-1.4,2.8-2.5,3.9
			c-1.1,1.1-2.3,2-3.8,2.7C365.3,244.7,363.7,245,361.9,245z M355.7,232.9c0,0.9,0.1,1.8,0.4,2.7c0.3,0.9,0.7,1.6,1.2,2.3
			c0.5,0.7,1.2,1.2,2,1.6c0.8,0.4,1.7,0.6,2.7,0.6c1.1,0,2-0.2,2.8-0.6c0.8-0.4,1.4-1,2-1.7c0.5-0.7,0.9-1.5,1.2-2.3
			c0.3-0.9,0.4-1.8,0.4-2.7c0-0.9-0.1-1.8-0.4-2.7c-0.3-0.9-0.7-1.6-1.2-2.3c-0.5-0.7-1.2-1.2-2-1.6c-0.8-0.4-1.7-0.6-2.7-0.6
			c-1.1,0-2,0.2-2.7,0.6c-0.8,0.4-1.4,1-2,1.6c-0.5,0.7-0.9,1.4-1.2,2.3C355.8,231.1,355.7,232,355.7,232.9z"/>
		<path class="st0" d="M254.3,259.6c-0.5-0.5-1.1-1-1.9-1.3c-0.8-0.3-1.7-0.5-2.7-0.5c-1.5,0-2.6,0.3-3.2,0.8c-0.7,0.6-1,1.3-1,2.3
			c0,0.5,0.1,0.9,0.3,1.2c0.2,0.3,0.5,0.6,0.8,0.8c0.4,0.2,0.9,0.4,1.5,0.6c0.6,0.2,1.3,0.3,2.1,0.5c0.9,0.2,1.7,0.4,2.4,0.6
			c0.7,0.2,1.3,0.5,1.8,0.9c0.5,0.4,0.9,0.8,1.2,1.3c0.3,0.5,0.4,1.1,0.4,1.9c0,0.8-0.1,1.4-0.4,2c-0.3,0.6-0.7,1-1.3,1.4
			c-0.5,0.4-1.2,0.7-1.9,0.8c-0.7,0.2-1.6,0.3-2.4,0.3c-2.6,0-4.9-0.8-6.7-2.4l0.8-1.4c0.3,0.3,0.7,0.6,1.1,0.9
			c0.4,0.3,0.9,0.5,1.4,0.7c0.5,0.2,1.1,0.4,1.6,0.5c0.6,0.1,1.2,0.2,1.8,0.2c1.3,0,2.4-0.2,3.1-0.7c0.7-0.5,1.1-1.2,1.1-2.2
			c0-0.5-0.1-1-0.3-1.3c-0.2-0.4-0.5-0.7-1-0.9c-0.4-0.3-1-0.5-1.6-0.7c-0.6-0.2-1.4-0.4-2.2-0.6c-0.9-0.2-1.7-0.4-2.3-0.6
			c-0.7-0.2-1.2-0.5-1.7-0.8c-0.5-0.3-0.8-0.7-1-1.2c-0.2-0.5-0.3-1-0.3-1.7c0-0.8,0.1-1.5,0.4-2.1c0.3-0.6,0.7-1.1,1.2-1.5
			c0.5-0.4,1.2-0.7,1.9-0.9c0.7-0.2,1.5-0.3,2.4-0.3c1.1,0,2.1,0.2,3,0.5c0.9,0.3,1.7,0.8,2.4,1.4L254.3,259.6z"/>
		<path class="st0" d="M263.8,256.4h1.4l7,16.8h-1.8l-2.2-5.3h-7.6l-2.2,5.3h-1.8L263.8,256.4z M267.9,266.7l-3.4-8.3l-3.4,8.3
			H267.9z"/>
		<path class="st0" d="M276.3,259.5v13.7h-1.7v-16.8h1.3l11.1,14v-14h1.7v16.8h-1.4L276.3,259.5z"/>
		<path class="st0" d="M304.8,257.9h-6v15.3h-1.7v-15.3h-6v-1.5h13.6V257.9z"/>
		<path class="st0" d="M310.9,256.4h1.4l7,16.8h-1.8l-2.2-5.3h-7.6l-2.2,5.3h-1.8L310.9,256.4z M315,266.7l-3.4-8.3l-3.4,8.3H315z"
			/>
		<path class="st0" d="M327,273.2v-16.8h11v1.5h-9.4v6.2h7.9v1.4h-7.9v7.8H327z"/>
		<path class="st0" d="M352.2,271.8v1.5h-11.3v-16.8H352v1.5h-9.4v6.1h8.2v1.4h-8.2v6.4H352.2z"/>
	</g>
	<path class="st0" d="M401.8,186.6c0-1-0.1-2-0.2-2.9c-3.5-54.2-48.6-97.1-103.7-97.1c-55.1,0-100.1,42.9-103.7,97.1
		c-0.1,1-0.2,1.9-0.2,2.9c-0.1,1.3-0.1,2.6-0.1,3.9c0,1.2,0.1,2.5,0.1,3.7h14.1h12.6h12.6c-0.1-1.2-0.1-2.5-0.1-3.7
		c0-1.3,0.1-2.6,0.1-3.9c0.1-1,0.1-2,0.2-2.9c3.4-32.4,30.9-57.7,64.2-57.7c33.3,0,60.8,25.3,64.2,57.7h-13.5
		c-3.4-25-24.8-44.4-50.7-44.4c-26,0-47.4,19.3-50.7,44.4c-0.1,1-0.2,1.9-0.3,2.9c-0.1,1.3-0.2,2.6-0.2,3.9c0,1.3,0.1,2.5,0.2,3.7
		h12.3c-0.1-1.2-0.2-2.4-0.2-3.7c0-1.3,0.1-2.6,0.2-3.9c0.1-1,0.3-2,0.4-2.9c3.2-18.2,19.2-32.1,38.3-32.1
		c19.2,0,35.1,13.9,38.3,32.1c0.2,1,0.3,1.9,0.4,2.9c0.1,1.3,0.2,2.6,0.2,3.9c0,1.3-0.1,2.5-0.2,3.7h12.3h13.4h12.6
		c0.1-1.2,0.1-2.5,0.1-3.7c0-1.3,0-2.6-0.1-3.9c0-1-0.1-2-0.2-2.9c-3.5-39.4-36.6-70.4-76.9-70.4c-40.3,0-73.4,30.9-76.9,70.4h-12.6
		c3.5-46.4,42.2-83,89.5-83c47.3,0,86,36.6,89.5,83c0.1,1,0.2,1.9,0.2,2.9c0.1,1.3,0.1,2.6,0.1,3.9c0,1.2-0.1,2.5-0.1,3.7h14.1
		c0-1.2,0.1-2.5,0.1-3.7C401.9,189.2,401.9,187.9,401.8,186.6z"/>
</g>
</svg>
